<?xml version="1.0" encoding="iso-8859-1"?>
<!-- Generator: Adobe Illustrator 19.0.0, SVG Export Plug-In . SVG Version: 6.00 Build 0)  -->
<svg version="1.1" id="Capa_1" xmlns="http://www.w3.org/2000/svg" xmlns:xlink="http://www.w3.org/1999/xlink" x="0px" y="0px"
	 viewBox="0 0 512 512" style="enable-background:new 0 0 512 512;" xml:space="preserve">
<g>
	<g>
		<path d="M511.985,69.703c-0.052-1.779-1.656-5.238-1.68-5.273c-0.008-0.012-39.985-59.977-39.985-59.977
			C468.466,1.671,465.344,0,462,0H50c-3.344,0-6.466,1.671-8.32,4.453c0,0-39.977,59.965-40,60C1.671,64.466,0,67,0,70v432
			c0,5.522,4.477,10,10,10h492c5.523,0,10-4.478,10-10C512,502,511.988,69.802,511.985,69.703z M55.352,20h401.296l26.667,40H28.685
			L55.352,20z M40,492H20v-20h20V492z M120,492H60V284h60V492z M200,492h-60V284h60V492z M492,492H220v-20h272V492z M492,204H296
			c-5.51,0-10,4.479-10,10c0,5.51,4.49,10,10,10h196v228H220V274c0-5.522-4.477-10-10-10H50c-5.523,0-10,4.478-10,10v178H20V224h196
			c5.51,0,10-4.49,10-10c0-5.521-4.49-10-10-10H20v-20h472V204z M492,164H20V80h472V164z"/>
	</g>
</g>
<g>
	<g>
		<path d="M462,264H250c-5.523,0-10,4.478-10,10v148c0,5.522,4.477,10,10,10h212c5.523,0,10-4.478,10-10V274
			C472,268.478,467.523,264,462,264z M452,412H260V284h192V412z"/>
	</g>
</g>
<g>
	<g>
		<path d="M90,394c-5.523,0-10,4.478-10,10v18c0,5.522,4.477,10,10,10s10-4.478,10-10v-18C100,398.478,95.523,394,90,394z"/>
	</g>
</g>
<g>
	<g>
		<path d="M170,394c-5.523,0-10,4.478-10,10v18c0,5.522,4.477,10,10,10s10-4.478,10-10v-18C180,398.478,175.523,394,170,394z"/>
	</g>
</g>
<g>
	<g>
		<path d="M256,204c-5.51,0-10,4.479-10,10c0,5.51,4.49,10,10,10s10-4.49,10-10C266,208.479,261.51,204,256,204z"/>
	</g>
</g>
<g>
	<g>
		<path d="M84.599,101.158c-2.838-2.442-6.611-3.663-11.318-3.663c0,0-13.657,0-13.662,0c-1.71,0-3.828,1.061-3.828,3.102
			c0,0,0,41.755,0,41.976c0.001,1.121,0.634,1.872,1.508,2.36c1.091,0.608,2.558,0.808,3.64,0.808c1.935,0,5.148-0.704,5.148-3.168
			v-14.256h6.534c4.884,0,8.81-1.243,11.78-3.729C90.496,119.485,90.64,106.357,84.599,101.158z M72.622,120.396h-6.534V106.47
			c0,0,6.511,0,6.534,0C80.502,106.47,80.781,120.396,72.622,120.396z"/>
	</g>
</g>
<g>
	<g>
		<path d="M113.607,97.495c-9.574,0-16.17,5.833-16.17,15.576v17.489c0,5.369,1.473,9.306,4.421,11.814
			c2.947,2.508,6.864,3.762,11.748,3.762c9.585,0,16.237-5.817,16.237-15.576c0,0,0-17.467,0-17.489
			C129.843,103.417,123.159,97.495,113.607,97.495z M119.546,130.559c0,4.4-1.98,6.601-5.94,6.601c-3.916,0-5.874-2.2-5.874-6.601
			V113.07c0-4.399,1.958-6.601,5.874-6.601c3.96,0,5.94,2.201,5.94,6.601V130.559z"/>
	</g>
</g>
<g>
	<g>
		<path d="M169.608,125.082c-3.658-7.157-12.063-7.627-17.821-12.277c-1.969-1.59-2.018-4.093,0.1-5.576
			c2.874-2.012,7.67-1.341,10.629,0.101c2.305,1.123,4.778,2.111,6.366-0.625c1.246-2.147,1.64-4.977-0.395-6.75
			c-2.988-2.602-7.868-2.856-11.65-2.856c-4.664,0-8.646,1.155-11.945,3.466c-3.301,2.31-4.95,5.796-4.95,10.461
			c0,2.86,0.715,5.324,2.145,7.392s3.179,3.663,5.247,4.785c3.733,2.025,13.528,4.514,13.53,9.865
			c-0.001,1.498-0.808,2.543-1.936,3.233c-1.308,0.8-3.049,1.123-4.467,1.123c-3.758,0-6.025-2.388-9.01-4.348
			c-1.966-1.286-3.971-0.828-5.345,1.049c-2.928,3.999-0.352,7.553,3.399,9.635c3.168,1.761,6.886,2.641,11.154,2.641
			c4.928,0,8.91-1.264,11.946-3.791c3.036-2.528,4.554-6.06,4.554-10.598C171.159,129.416,170.641,127.107,169.608,125.082z"/>
	</g>
</g>
<g>
	<g>
		<path d="M209.436,97.494c0,0-28.339,0-28.511,0c-2.247,0-3.103,2.568-3.103,4.424c0.001,1.889,0.808,4.552,3.104,4.552h9.107
			c0,0,0,35.771,0,36.079c0,2.491,3.221,3.191,5.148,3.191c1.851,0,5.148-0.726,5.148-3.189V106.47c0,0,9.021,0,9.107,0
			c2.279,0,3.103-2.702,3.103-4.552C212.539,100.099,211.723,97.494,209.436,97.494z"/>
	</g>
</g>
<g>
	<g>
		<path d="M254.714,97.495c-9.585,0-16.17,5.847-16.17,15.576v17.489c-0.001,5.369,1.473,9.306,4.421,11.814
			c2.947,2.508,6.864,3.762,11.748,3.762c9.703,0,16.237-5.795,16.237-15.576c0,0,0-17.465,0-17.489
			C270.95,103.385,264.306,97.495,254.714,97.495z M260.653,130.559c0,4.4-1.98,6.601-5.94,6.601c-3.916,0-5.874-2.2-5.874-6.601
			V113.07c0-4.399,1.958-6.601,5.874-6.601c3.96,0,5.94,2.201,5.94,6.601V130.559z"/>
	</g>
</g>
<g>
	<g>
		<path d="M309.557,97.494c0,0-22.899,0-22.902,0c-1.857,0-4.488,0.818-4.488,3.168c0,0,0,41.602,0,41.908
			c0.001,1.1,0.642,1.848,1.522,2.34c1.098,0.615,2.568,0.83,3.628,0.83c1.944,0,5.147-0.674,5.147-3.168v-17.028
			c0,0,9.891,0,9.966,0c2.063,0,3.102-2.066,3.102-3.893c0-1.775-0.965-4.027-3.102-4.027h-9.967V106.47c0,0,16.974,0,17.094,0
			c2.247,0,3.102-2.645,3.102-4.554C312.659,100.019,311.825,97.494,309.557,97.494z"/>
	</g>
</g>
<g>
	<g>
		<path d="M348.167,97.495h-22.902c-1.934,0-4.487,0.861-4.487,3.168c0,0,0,41.73,0,41.91c0,1.093,0.642,1.841,1.522,2.334
			c1.097,0.615,2.566,0.833,3.626,0.833c1.945,0,5.148-0.676,5.148-3.168v-17.028c0,0,9.912,0,9.966,0
			c2.001,0,3.103-2.027,3.103-3.894c0-1.863-0.97-4.026-3.103-4.026h-9.966V106.47c0,0,17.013,0,17.093,0
			c2.321,0,3.103-2.669,3.103-4.553C351.27,100.105,350.453,97.495,348.167,97.495z"/>
	</g>
</g>
<g>
	<g>
		<path d="M364.537,97.494c-1.909,0-5.147,0.667-5.147,3.102c0,0,0,41.675,0,41.975c-0.001,1.1,0.639,1.849,1.518,2.341
			c1.097,0.614,2.566,0.828,3.629,0.828c1.926,0,5.148-0.726,5.148-3.168c0,0,0-41.718,0-41.975
			C369.685,98.139,366.43,97.494,364.537,97.494z"/>
	</g>
</g>
<g>
	<g>
		<path d="M408.095,127.459c-3.212,0-4.906,1.034-5.082,3.103c-0.358,3.726-1.66,6.599-5.807,6.599c-4.005,0-6.006-2.2-6.006-6.601
			v-17.49c0-4.399,1.979-6.601,5.939-6.601c3.784,0,5.742,1.98,5.874,5.94c0.132,2.068,1.849,3.102,5.149,3.102
			c3.411,0,5.147-1.466,5.147-4.883c0-8.988-8.657-13.134-16.565-13.134c-9.541,0-15.84,6.004-15.84,15.576c0,0,0,17.469,0,17.489
			c0,4.897,1.671,8.882,4.596,11.595c2.753,2.554,6.617,3.982,11.244,3.982c4.84,0,8.811-1.231,11.913-3.695
			s4.652-5.83,4.652-10.098C413.309,128.945,411.45,127.459,408.095,127.459z"/>
	</g>
</g>
<g>
	<g>
		<path d="M451.127,136.763h-17.688v-11.22c0,0,9.851,0,9.899,0c2.011,0,3.103-2.016,3.103-3.893c0-1.778-0.966-4.027-3.103-4.027
			h-9.899V106.47c0,0,17.535,0,17.687,0c2.288,0,3.103-2.699,3.104-4.553c0-1.806-0.84-4.422-3.103-4.422c0,0-23.491,0-23.496,0
			c-1.846,0-4.487,0.847-4.487,3.168c0,0,0,41.63,0,41.909c0,1.02,0.564,1.774,1.353,2.29c0.919,0.601,2.143,0.878,3.134,0.878
			c0,0,23.387,0,23.496,0c2.209,0,3.103-2.508,3.103-4.422C454.23,139.528,453.416,136.763,451.127,136.763z"/>
	</g>
</g>
<g>
	<g>
		<path d="M430.715,348.098c0.001,0-17.974-31.956-17.999-32c-2.729-4.851-9.145-6.532-13.899-3.649l-25.474,15.439
			C367.038,321.774,358.454,318,349,318c-19.299,0-35,15.701-35,35c0,2.793,0.338,5.507,0.959,8.113
			c-6.735-2.959-12.778-7.086-16.737-12.805c-7.181-10.372-23.824,0.725-16.445,11.384c16.332,23.59,50.199,27.645,65.24,28.248
			c28.296,1.135,66.202-2.235,83.352-28.467C432.368,356.416,432.579,351.41,430.715,348.098z M349,368c-8.271,0-15-6.729-15-15
			s6.729-15,15-15s15,6.729,15,15S357.271,368,349,368z M381.656,365.57c1.508-3.904,2.344-8.14,2.344-12.57
			c0-2.634-0.302-5.198-0.856-7.667l17.205-10.427l9.94,17.671C403.433,359.404,392.425,363.369,381.656,365.57z"/>
	</g>
</g>
<g>
</g>
<g>
</g>
<g>
</g>
<g>
</g>
<g>
</g>
<g>
</g>
<g>
</g>
<g>
</g>
<g>
</g>
<g>
</g>
<g>
</g>
<g>
</g>
<g>
</g>
<g>
</g>
<g>
</g>
</svg>
