<svg width="426" height="95" viewBox="0 0 426 95" fill="none" xmlns="http://www.w3.org/2000/svg">
<path d="M43.6 25H68.8C73 25 76.04 25.96 77.92 27.88C79.84 29.76 80.8 32.8 80.8 37V43C80.8 47.2 79.84 50.26 77.92 52.18C76.04 54.06 73 55 68.8 55H54.4V67H43.6V25ZM70 37C70 34.6 68.8 33.4 66.4 33.4H54.4V46.6H66.4C68.8 46.6 70 45.4 70 43V37ZM117.998 58C117.998 61 117.138 63.36 115.418 65.08C113.738 66.76 111.398 67.6 108.398 67.6H94.5977C91.5977 67.6 89.2377 66.76 87.5177 65.08C85.8377 63.36 84.9977 61 84.9977 58V44.2C84.9977 41.2 85.8377 38.86 87.5177 37.18C89.2377 35.46 91.5977 34.6 94.5977 34.6H108.398C111.398 34.6 113.738 35.46 115.418 37.18C117.138 38.86 117.998 41.2 117.998 44.2V58ZM107.498 45.1C107.498 43.5 106.698 42.7 105.098 42.7H97.8977C96.2977 42.7 95.4977 43.5 95.4977 45.1V57.1C95.4977 58.7 96.2977 59.5 97.8977 59.5H105.098C106.698 59.5 107.498 58.7 107.498 57.1V45.1ZM151.591 66.4C144.111 67.2 137.511 67.6 131.791 67.6C129.071 67.6 126.891 66.78 125.251 65.14C123.611 63.5 122.791 61.32 122.791 58.6V44.8C122.791 41.8 123.631 39.46 125.311 37.78C127.031 36.06 129.391 35.2 132.391 35.2H151.591V43.3H135.691C134.091 43.3 133.291 44.1 133.291 45.7V57.4C133.291 58 133.491 58.5 133.891 58.9C134.291 59.3 134.791 59.5 135.391 59.5C138.991 59.5 144.391 59.2 151.591 58.6V66.4Z" fill="#21C4D5"/>
<path d="M164.479 67H152.779L168.679 25H180.679L196.579 67H184.879L182.179 59.5H167.179L164.479 67ZM169.879 51.7H179.479L174.679 37.6L169.879 51.7ZM216.677 43.3C214.557 43.3 212.157 43.7 209.477 44.5V58.9H218.477C220.077 58.9 220.877 58.1 220.877 56.5V45.4C220.877 44.8 220.677 44.3 220.277 43.9C219.877 43.5 219.377 43.3 218.777 43.3H216.677ZM209.477 67V77.2H198.977V35.2H208.277L208.877 38.2C210.757 36.96 212.677 36.06 214.637 35.5C216.637 34.9 218.317 34.6 219.677 34.6H222.377C225.097 34.6 227.277 35.42 228.917 37.06C230.557 38.7 231.377 40.88 231.377 43.6V57.4C231.377 60.4 230.517 62.76 228.797 64.48C227.117 66.16 224.777 67 221.777 67H209.477ZM249.07 42.1C247.47 42.1 246.67 42.9 246.67 44.5V47.8H256.87V44.5C256.87 42.9 256.07 42.1 254.47 42.1H249.07ZM266.17 66.4C258.45 67.2 251.45 67.6 245.17 67.6C242.45 67.6 240.27 66.78 238.63 65.14C236.99 63.5 236.17 61.32 236.17 58.6V44.2C236.17 41.2 237.01 38.86 238.69 37.18C240.41 35.46 242.77 34.6 245.77 34.6H257.77C260.77 34.6 263.11 35.46 264.79 37.18C266.51 38.86 267.37 41.2 267.37 44.2V55.3H246.67V57.7C246.67 58.3 246.87 58.8 247.27 59.2C247.67 59.6 248.17 59.8 248.77 59.8C252.73 59.8 258.53 59.5 266.17 58.9V66.4ZM294.046 46.9V35.2H304.546V67H294.046V55H283.246V67H272.746V35.2H283.246V46.9H294.046ZM324.639 52C324.439 54.8 323.639 57.1 322.239 58.9H332.739V43.3H325.239L324.639 52ZM343.239 35.2V58.9H347.739V74.2H337.779L337.179 67H318.699L318.099 74.2H308.139V58.9H312.039C313.639 57.02 314.539 54.92 314.739 52.6L315.939 35.2H343.239ZM364.565 59.2C366.685 59.2 369.085 58.8 371.765 58V54.4H363.065C362.465 54.4 361.965 54.6 361.565 55C361.165 55.4 360.965 55.9 360.965 56.5V57.1C360.965 57.7 361.165 58.2 361.565 58.6C361.965 59 362.465 59.2 363.065 59.2H364.565ZM353.465 35.8C360.785 35 367.385 34.6 373.265 34.6C375.985 34.6 378.165 35.42 379.805 37.06C381.445 38.7 382.265 40.88 382.265 43.6V67H372.965L372.365 64C370.485 65.24 368.545 66.16 366.545 66.76C364.585 67.32 362.925 67.6 361.565 67.6H359.465C356.745 67.6 354.565 66.78 352.925 65.14C351.285 63.5 350.465 61.32 350.465 58.6V55.9C350.465 53.18 351.285 51 352.925 49.36C354.565 47.72 356.745 46.9 359.465 46.9H371.765V44.5C371.765 43.9 371.565 43.4 371.165 43C370.765 42.6 370.265 42.4 369.665 42.4C367.065 42.4 364.185 42.52 361.025 42.76C357.905 43 355.385 43.18 353.465 43.3V35.8Z" fill="#FDFDFD"/>
<rect x="0.5" y="0.5" width="425" height="94" stroke="#FDFDFD"/>
</svg>
